<svg width="530" height="20" viewBox="0 0 530 20" fill="none" xmlns="http://www.w3.org/2000/svg">
<line y1="9.5" x2="207.5" y2="9.5" stroke="#BDBDBD"/>
<path opacity="0.5" d="M228.58 10.488C228.58 11.2627 228.482 11.9673 228.286 12.602C228.09 13.2273 227.796 13.7687 227.404 14.226C227.021 14.6833 226.541 15.0333 225.962 15.276C225.393 15.5187 224.73 15.64 223.974 15.64C223.19 15.64 222.509 15.5187 221.93 15.276C221.351 15.024 220.871 14.674 220.488 14.226C220.105 13.7687 219.821 13.2227 219.634 12.588C219.447 11.9533 219.354 11.2487 219.354 10.474C219.354 9.44733 219.522 8.55133 219.858 7.786C220.194 7.02067 220.703 6.42333 221.384 5.994C222.075 5.56467 222.943 5.35 223.988 5.35C224.987 5.35 225.827 5.56467 226.508 5.994C227.189 6.414 227.703 7.01133 228.048 7.786C228.403 8.55133 228.58 9.452 228.58 10.488ZM220.684 10.488C220.684 11.328 220.801 12.0513 221.034 12.658C221.267 13.2647 221.627 13.7313 222.112 14.058C222.607 14.3847 223.227 14.548 223.974 14.548C224.73 14.548 225.346 14.3847 225.822 14.058C226.307 13.7313 226.667 13.2647 226.9 12.658C227.133 12.0513 227.25 11.328 227.25 10.488C227.25 9.228 226.989 8.24333 226.466 7.534C225.943 6.81533 225.117 6.456 223.988 6.456C223.232 6.456 222.607 6.61933 222.112 6.946C221.627 7.26333 221.267 7.72533 221.034 8.332C220.801 8.92933 220.684 9.648 220.684 10.488ZM234.128 7.856C234.268 7.856 234.417 7.86533 234.576 7.884C234.744 7.89333 234.888 7.912 235.01 7.94L234.856 9.074C234.734 9.046 234.599 9.02267 234.45 9.004C234.31 8.98533 234.174 8.976 234.044 8.976C233.754 8.976 233.479 9.03667 233.218 9.158C232.956 9.27933 232.723 9.452 232.518 9.676C232.312 9.89067 232.149 10.152 232.028 10.46C231.916 10.768 231.86 11.1133 231.86 11.496V15.5H230.628V7.996H231.636L231.776 9.368H231.832C231.99 9.088 232.182 8.836 232.406 8.612C232.63 8.37867 232.886 8.19667 233.176 8.066C233.465 7.926 233.782 7.856 234.128 7.856ZM235.667 14.03C235.583 14.3567 235.475 14.7113 235.345 15.094C235.214 15.4767 235.069 15.8547 234.911 16.228C234.761 16.6107 234.612 16.97 234.463 17.306H233.553C233.646 16.9513 233.735 16.5687 233.819 16.158C233.912 15.7567 233.996 15.36 234.071 14.968C234.145 14.5667 234.206 14.2027 234.253 13.876H235.569L235.667 14.03ZM244.561 15.64C243.899 15.64 243.306 15.5047 242.783 15.234C242.27 14.9633 241.864 14.5433 241.565 13.974C241.276 13.4047 241.131 12.6767 241.131 11.79C241.131 10.866 241.285 10.1147 241.593 9.536C241.901 8.95733 242.317 8.53267 242.839 8.262C243.371 7.99133 243.973 7.856 244.645 7.856C245.028 7.856 245.397 7.898 245.751 7.982C246.106 8.05667 246.395 8.15 246.619 8.262L246.241 9.284C246.017 9.2 245.756 9.12067 245.457 9.046C245.159 8.97133 244.879 8.934 244.617 8.934C244.113 8.934 243.698 9.04133 243.371 9.256C243.045 9.47067 242.802 9.788 242.643 10.208C242.485 10.628 242.405 11.1507 242.405 11.776C242.405 12.3733 242.485 12.882 242.643 13.302C242.802 13.722 243.04 14.0393 243.357 14.254C243.675 14.4687 244.071 14.576 244.547 14.576C244.958 14.576 245.317 14.534 245.625 14.45C245.943 14.366 246.232 14.2633 246.493 14.142V15.234C246.241 15.3647 245.961 15.4627 245.653 15.528C245.355 15.6027 244.991 15.64 244.561 15.64ZM249.51 15.5H248.278V4.86H249.51V15.5ZM253.119 7.996V15.5H251.887V7.996H253.119ZM252.517 5.182C252.704 5.182 252.867 5.24733 253.007 5.378C253.157 5.49933 253.231 5.69533 253.231 5.966C253.231 6.22733 253.157 6.42333 253.007 6.554C252.867 6.68467 252.704 6.75 252.517 6.75C252.312 6.75 252.139 6.68467 251.999 6.554C251.859 6.42333 251.789 6.22733 251.789 5.966C251.789 5.69533 251.859 5.49933 251.999 5.378C252.139 5.24733 252.312 5.182 252.517 5.182ZM258.507 15.64C257.844 15.64 257.251 15.5047 256.729 15.234C256.215 14.9633 255.809 14.5433 255.511 13.974C255.221 13.4047 255.077 12.6767 255.077 11.79C255.077 10.866 255.231 10.1147 255.539 9.536C255.847 8.95733 256.262 8.53267 256.785 8.262C257.317 7.99133 257.919 7.856 258.591 7.856C258.973 7.856 259.342 7.898 259.697 7.982C260.051 8.05667 260.341 8.15 260.565 8.262L260.187 9.284C259.963 9.2 259.701 9.12067 259.403 9.046C259.104 8.97133 258.824 8.934 258.563 8.934C258.059 8.934 257.643 9.04133 257.317 9.256C256.99 9.47067 256.747 9.788 256.589 10.208C256.43 10.628 256.351 11.1507 256.351 11.776C256.351 12.3733 256.43 12.882 256.589 13.302C256.747 13.722 256.985 14.0393 257.303 14.254C257.62 14.4687 258.017 14.576 258.493 14.576C258.903 14.576 259.263 14.534 259.571 14.45C259.888 14.366 260.177 14.2633 260.439 14.142V15.234C260.187 15.3647 259.907 15.4627 259.599 15.528C259.3 15.6027 258.936 15.64 258.507 15.64ZM263.441 10.418C263.441 10.5673 263.432 10.7633 263.413 11.006C263.404 11.2487 263.395 11.4587 263.385 11.636H263.441C263.497 11.5613 263.581 11.454 263.693 11.314C263.805 11.174 263.917 11.034 264.029 10.894C264.151 10.7447 264.253 10.6233 264.337 10.53L266.731 7.996H268.173L265.135 11.202L268.383 15.5H266.899L264.295 12L263.441 12.742V15.5H262.223V4.86H263.441V10.418ZM274.57 7.45C274.57 7.76733 274.561 8.066 274.542 8.346C274.533 8.61667 274.519 8.83133 274.5 8.99H274.57C274.785 8.67267 275.079 8.40667 275.452 8.192C275.826 7.97733 276.306 7.87 276.894 7.87C277.828 7.87 278.574 8.19667 279.134 8.85C279.704 9.494 279.988 10.46 279.988 11.748C279.988 12.6067 279.858 13.3253 279.596 13.904C279.344 14.4827 278.985 14.9167 278.518 15.206C278.052 15.4953 277.51 15.64 276.894 15.64C276.306 15.64 275.826 15.5327 275.452 15.318C275.079 15.1033 274.785 14.8467 274.57 14.548H274.472L274.22 15.5H273.338V4.86H274.57V7.45ZM276.684 8.892C276.152 8.892 275.732 8.99467 275.424 9.2C275.116 9.396 274.897 9.704 274.766 10.124C274.636 10.5347 274.57 11.062 274.57 11.706V11.762C274.57 12.686 274.72 13.3953 275.018 13.89C275.326 14.3753 275.891 14.618 276.712 14.618C277.384 14.618 277.884 14.3707 278.21 13.876C278.546 13.3813 278.714 12.6673 278.714 11.734C278.714 10.7913 278.546 10.082 278.21 9.606C277.884 9.13 277.375 8.892 276.684 8.892ZM284.85 7.856C285.494 7.856 286.044 7.996 286.502 8.276C286.968 8.556 287.323 8.95267 287.566 9.466C287.818 9.97 287.944 10.5627 287.944 11.244V11.986H282.806C282.824 12.8353 283.039 13.484 283.45 13.932C283.87 14.3707 284.453 14.59 285.2 14.59C285.676 14.59 286.096 14.548 286.46 14.464C286.833 14.3707 287.216 14.24 287.608 14.072V15.15C287.225 15.318 286.847 15.4393 286.474 15.514C286.1 15.598 285.657 15.64 285.144 15.64C284.434 15.64 283.804 15.4953 283.254 15.206C282.712 14.9167 282.288 14.4873 281.98 13.918C281.681 13.3393 281.532 12.6347 281.532 11.804C281.532 10.9827 281.667 10.278 281.938 9.69C282.218 9.102 282.605 8.64933 283.1 8.332C283.604 8.01467 284.187 7.856 284.85 7.856ZM284.836 8.864C284.248 8.864 283.781 9.05533 283.436 9.438C283.1 9.81133 282.899 10.334 282.834 11.006H286.656C286.656 10.5767 286.59 10.2033 286.46 9.886C286.329 9.56867 286.128 9.32133 285.858 9.144C285.596 8.95733 285.256 8.864 284.836 8.864ZM291.086 15.5H289.854V4.86H291.086V15.5ZM299.987 11.734C299.987 12.3593 299.903 12.9147 299.735 13.4C299.577 13.876 299.343 14.282 299.035 14.618C298.737 14.954 298.368 15.2107 297.929 15.388C297.5 15.556 297.019 15.64 296.487 15.64C295.993 15.64 295.535 15.556 295.115 15.388C294.695 15.2107 294.331 14.954 294.023 14.618C293.715 14.282 293.473 13.876 293.295 13.4C293.127 12.9147 293.043 12.3593 293.043 11.734C293.043 10.9033 293.183 10.2033 293.463 9.634C293.743 9.05533 294.145 8.61667 294.667 8.318C295.19 8.01 295.811 7.856 296.529 7.856C297.211 7.856 297.808 8.01 298.321 8.318C298.844 8.61667 299.25 9.05533 299.539 9.634C299.838 10.2033 299.987 10.9033 299.987 11.734ZM294.317 11.734C294.317 12.322 294.392 12.8353 294.541 13.274C294.7 13.7033 294.943 14.0347 295.269 14.268C295.596 14.5013 296.011 14.618 296.515 14.618C297.019 14.618 297.435 14.5013 297.761 14.268C298.088 14.0347 298.326 13.7033 298.475 13.274C298.634 12.8353 298.713 12.322 298.713 11.734C298.713 11.1367 298.634 10.628 298.475 10.208C298.317 9.788 298.074 9.466 297.747 9.242C297.43 9.00867 297.015 8.892 296.501 8.892C295.736 8.892 295.181 9.144 294.835 9.648C294.49 10.152 294.317 10.8473 294.317 11.734ZM306.511 11.258C306.455 11.062 306.399 10.8707 306.343 10.684C306.287 10.488 306.235 10.306 306.189 10.138C306.151 9.96067 306.114 9.79733 306.077 9.648C306.039 9.49867 306.011 9.37267 305.993 9.27H305.937C305.918 9.37267 305.89 9.49867 305.853 9.648C305.825 9.79733 305.787 9.96067 305.741 10.138C305.703 10.3153 305.657 10.502 305.601 10.698C305.554 10.8847 305.498 11.076 305.433 11.272L304.089 15.486H302.689L300.631 7.982H301.905L302.941 11.986C303.015 12.2567 303.085 12.532 303.151 12.812C303.216 13.0827 303.272 13.344 303.319 13.596C303.375 13.8387 303.412 14.0487 303.431 14.226H303.487C303.515 14.114 303.547 13.974 303.585 13.806C303.622 13.638 303.659 13.4607 303.697 13.274C303.743 13.0873 303.79 12.9007 303.837 12.714C303.893 12.5273 303.944 12.3593 303.991 12.21L305.321 7.982H306.665L307.953 12.21C308.018 12.4247 308.083 12.6533 308.149 12.896C308.223 13.1387 308.289 13.3767 308.345 13.61C308.401 13.834 308.438 14.0347 308.457 14.212H308.513C308.531 14.0533 308.564 13.8573 308.611 13.624C308.667 13.3813 308.727 13.12 308.793 12.84C308.867 12.5507 308.942 12.266 309.017 11.986L310.067 7.982H311.327L309.241 15.486H307.799L306.511 11.258Z" fill="#141414"/>
<line x1="322.5" y1="9.5" x2="530" y2="9.5" stroke="#BDBDBD"/>
</svg>
