<svg width="127" height="32" viewBox="0 0 127 32" fill="none" xmlns="http://www.w3.org/2000/svg">
<g clip-path="url(#clip0_1456_60175)">
<path d="M10.7763 0.689472C7.01163 1.44241 4.96195 3.91039 4.96195 7.75875V9.85025L3.70705 9.85025C2.50423 9.82954 2.45215 9.72476 2.45215 11.2725C2.45215 12.7784 2.53581 12.862 3.70705 12.862H4.96195V22.2738V31.6855H7.17895H9.35411L9.22862 22.2738L9.10313 12.862H13.2025H17.3018L17.1763 22.2738L17.0508 31.6855H19.3515H21.694V20.6842V9.72477L15.3776 9.85025L9.0613 9.97574L9.31228 7.9679C9.77241 4.70516 11.362 3.74307 15.9633 4.07771C17.0508 4.11954 17.0927 4.03588 17.0927 2.23718V0.313L14.7084 0.354832C13.3698 0.396662 11.6129 0.522152 10.7763 0.689472ZM15.1685 2.19535C15.1267 2.4045 14.0391 2.86464 12.7423 3.15745C11.4456 3.45026 10.0234 3.99405 9.60509 4.41235C8.68483 5.24895 8.2247 7.38228 8.55934 9.05548C8.76849 10.1431 9.10313 10.3522 10.9018 10.7705C12.2404 11.1052 14.1646 11.1888 16.3397 10.9797C18.9332 10.7705 19.8116 10.8123 20.0626 11.2725C20.5227 11.9836 20.5646 30.4306 20.1044 30.4306C19.8953 30.4306 19.3515 30.096 18.9332 29.6777C18.2221 29.0084 18.1384 28.2973 18.1384 20.9771C18.1384 14.828 18.0129 12.8202 17.5528 12.3182C17.1345 11.7744 16.2561 11.6071 13.9136 11.6071C10.4417 11.6071 8.89398 12.1509 8.55934 13.4476C8.43385 13.9496 8.30836 17.798 8.30836 21.9391C8.26653 27.6699 8.09921 29.6777 7.68091 30.0123C7.30444 30.347 6.9698 30.3052 6.46783 29.8032C5.88221 29.2176 5.79855 27.9208 5.79855 21.1025C5.79855 13.6986 5.75672 13.0712 4.96195 12.2346L4.12535 11.3143L4.96195 10.3522C5.42208 9.80843 5.79855 9.01365 5.84038 8.51169C5.92404 5.29078 7.34627 2.99012 9.73058 2.15352C11.3201 1.5679 15.2103 1.60973 15.1685 2.19535Z" fill="#2355D2"/>
<path d="M15.1685 2.19535C15.1267 2.4045 14.0391 2.86464 12.7423 3.15745C11.4456 3.45026 10.0234 3.99405 9.60509 4.41235C8.68483 5.24895 8.2247 7.38228 8.55934 9.05548C8.76849 10.1431 9.10313 10.3522 10.9018 10.7705C12.2404 11.1052 14.1646 11.1888 16.3397 10.9797C18.9332 10.7705 19.8116 10.8123 20.0626 11.2725C20.5227 11.9836 20.5646 30.4306 20.1044 30.4306C19.8953 30.4306 19.3515 30.096 18.9332 29.6777C18.2221 29.0084 18.1384 28.2973 18.1384 20.9771C18.1384 14.828 18.0129 12.8202 17.5528 12.3182C17.1345 11.7744 16.2561 11.6071 13.9136 11.6071C10.4417 11.6071 8.89398 12.1509 8.55934 13.4476C8.43385 13.9496 8.30836 17.798 8.30836 21.9391C8.26653 27.6699 8.09921 29.6777 7.68091 30.0123C7.30444 30.347 6.9698 30.3052 6.46783 29.8032C5.88221 29.2176 5.79855 27.9208 5.79855 21.1025C5.79855 13.6986 5.75672 13.0712 4.96195 12.2346L4.12535 11.3143L4.96195 10.3522C5.42208 9.80843 5.79855 9.01365 5.84038 8.51169C5.92404 5.29078 7.34627 2.99012 9.73058 2.15352C11.3201 1.5679 15.2103 1.60973 15.1685 2.19535Z" fill="#2355D2"/>
<path d="M31.9476 15.7226C31.4674 17.3221 31.2291 19.9455 31.1682 23.7217C31.1264 28.574 31.0427 29.3269 30.3316 29.9544C29.7878 30.4145 29.3695 30.54 29.1185 30.289C28.6166 29.7871 28.4911 11.7583 28.993 11.2564C29.495 10.7544 31.21 11.2982 31.21 11.9675C31.21 12.3021 31.4192 12.5531 31.6283 12.5531C31.7633 12.5531 31.874 14.264 31.9476 15.7226Z" fill="#2355D2"/>
<path d="M32.0466 13.4315C32.0858 13.4805 32.1478 13.5409 32.2172 13.6084C32.4445 13.8296 32.7506 14.1275 32.5904 14.3518C32.3847 14.6136 32.204 14.9674 32.0466 15.417V13.4315Z" fill="#2355D2"/>
<path fill-rule="evenodd" clip-rule="evenodd" d="M32.0466 12.8452C32.3813 11.9123 33.9206 10.4867 35.0584 9.9178C37.1499 8.87205 41.0819 8.99754 43.3407 10.1269C46.5617 11.8001 46.8545 12.9296 47.0218 23.0943L47.1473 31.7949H44.8466H42.5041V24.0982C42.5041 15.9413 42.2113 14.2681 40.6218 13.2224C38.9904 12.1766 36.1041 12.3439 34.5983 13.6407C32.5904 15.3139 32.0466 17.9073 32.0466 25.3949V31.7949H29.746H27.4453V20.71V9.62499H29.746H32.0466V12.8452ZM32.0466 13.4315C32.0858 13.4805 32.1478 13.5409 32.2172 13.6084C32.4445 13.8296 32.7506 14.1275 32.5904 14.3518C32.3847 14.6136 32.204 14.9674 32.0466 15.417V17.6773C32.0466 17.8935 32.0342 17.6128 32.0111 17.0895C31.995 16.7235 31.9736 16.2388 31.9476 15.7226C31.4674 17.3221 31.2291 19.9455 31.1682 23.7217C31.1264 28.574 31.0427 29.3269 30.3316 29.9544C29.7878 30.4145 29.3695 30.54 29.1185 30.289C28.6166 29.7871 28.4911 11.7583 28.993 11.2564C29.495 10.7544 31.21 11.2982 31.21 11.9675C31.21 12.3021 31.4192 12.5531 31.6283 12.5531C31.7633 12.5531 31.874 14.264 31.9476 15.7226C31.9795 15.6162 32.0125 15.5143 32.0466 15.417V13.4315ZM44.9303 13.0969C44.6793 12.6368 43.5917 11.7165 42.5041 11.1309C40.6218 10.0851 39.4505 9.9178 37.8192 10.3361C37.4009 10.4198 37.0662 10.7126 37.0662 10.9636C37.0662 11.1727 36.7734 11.2982 36.4388 11.1727C36.1041 11.0054 35.7695 11.0472 35.644 11.2145C35.5185 11.3818 35.8113 11.5492 36.2296 11.591C36.6898 11.6328 37.1499 11.5073 37.2754 11.2564C37.4427 11.0472 37.7355 10.8799 37.9447 10.8799C38.1956 10.8799 38.2793 11.0472 38.1538 11.2564C38.0283 11.4655 38.6139 11.7165 39.4924 11.8838C41.2492 12.1348 42.9224 13.7243 42.9224 15.0211C42.9224 15.4812 43.0898 15.9413 43.2571 16.0668C43.4662 16.1923 43.6335 19.3296 43.6754 23.0524C43.6754 30.2472 43.9682 31.3766 45.3904 29.8707C46.0597 29.1178 46.1852 28.2812 46.227 23.8054C46.3107 18.7439 45.8505 14.9374 44.9303 13.0969Z" fill="#2355D2"/>
<path d="M31.9476 15.7226C31.9795 15.6162 32.0125 15.5143 32.0466 15.417V17.6773C32.0466 17.8935 32.0342 17.6128 32.0111 17.0895C31.995 16.7235 31.9736 16.2388 31.9476 15.7226Z" fill="#2355D2"/>
<path d="M42.5041 11.1309C43.5917 11.7165 44.6793 12.6368 44.9303 13.0969C45.8505 14.9374 46.3107 18.7439 46.227 23.8054C46.1852 28.2812 46.0597 29.1178 45.3904 29.8707C43.9682 31.3766 43.6754 30.2472 43.6754 23.0524C43.6335 19.3296 43.4662 16.1923 43.2571 16.0668C43.0898 15.9413 42.9224 15.4812 42.9224 15.0211C42.9224 13.7243 41.2492 12.1348 39.4924 11.8838C38.6139 11.7165 38.0283 11.4655 38.1538 11.2564C38.2793 11.0472 38.1956 10.8799 37.9447 10.8799C37.7355 10.8799 37.4427 11.0472 37.2754 11.2564C37.1499 11.5073 36.6898 11.6328 36.2296 11.591C35.8113 11.5492 35.5185 11.3818 35.644 11.2145C35.7695 11.0472 36.1041 11.0054 36.4388 11.1727C36.7734 11.2982 37.0662 11.1727 37.0662 10.9636C37.0662 10.7126 37.4009 10.4198 37.8192 10.3361C39.4505 9.9178 40.6218 10.0851 42.5041 11.1309Z" fill="#2355D2"/>
<path d="M121.961 28.8413C120.789 30.0125 121.668 32.104 123.341 32.104C124.471 32.104 125.223 31.3511 125.223 30.2217C125.223 29.0922 124.471 28.3393 123.341 28.3393C122.839 28.3393 122.254 28.5484 121.961 28.8413Z" fill="#2355D2"/>
<path d="M106.857 0.140364C105.86 0.422015 104.994 1.14626 104.54 2.0918C104.067 3.05746 104.027 3.42964 103.976 6.61834L103.926 9.6662H102.727H101.528V10.0686V10.4709H102.737H103.946V20.8819V31.293H104.399H104.853V20.8819V10.4709H107.069H109.285V10.0686V9.6662H107.059H104.833L104.873 6.71893C104.923 4.06336 104.943 3.72135 105.145 3.10776C105.437 2.19239 105.88 1.63915 106.616 1.26697C107.149 0.995376 107.29 0.965199 108.167 0.965199C108.701 0.965199 109.285 0.995376 109.466 1.03561L109.789 1.10602V0.673489C109.789 0.140364 109.748 0.130305 108.328 0.0598923C107.663 0.0297154 107.16 0.0498334 106.857 0.140364Z" fill="#2C2C30"/>
<path d="M53.2754 16.0543V31.2937H53.7287H54.182V26.8275V22.3714L55.0887 21.5365C56.0054 20.7116 56.0054 20.7116 56.227 20.8927C56.3479 21.0033 58.8361 23.3873 61.7575 26.1938L67.0764 31.3037L67.7413 31.2735L68.4061 31.2434L63.5405 26.5659C60.871 23.9908 58.2518 21.4761 57.728 20.9832L56.771 20.0779L62.2511 15.0887C65.2631 12.3526 67.8924 9.96865 68.0838 9.78759L68.4364 9.47576H67.7312H67.026L60.6292 15.3603L54.2324 21.2447L54.2022 11.0248L54.182 0.814998H53.7287H53.2754V16.0543Z" fill="#2C2C30"/>
<path d="M113.92 7.40432V9.66758H112.61H111.301V10.0196V10.3717H112.61H113.91L113.94 19.8473L113.97 29.3328L114.202 29.9062C114.766 31.2943 116.207 31.8174 118.634 31.5358L119.158 31.4653V31.0932V30.731L118.483 30.8115C117.174 30.9825 115.975 30.731 115.461 30.1778C115.34 30.047 115.159 29.7553 115.058 29.534C114.887 29.1618 114.877 28.5281 114.847 19.7467L114.827 10.3717H116.942H119.058V10.0196V9.66758H116.942H114.827V7.40432V5.14105H114.373H113.92V7.40432Z" fill="#2C2C30"/>
<path d="M78.1572 8.97213C76.7469 9.17331 75.3567 9.99815 74.4098 11.1952C74.2285 11.4265 73.9162 12.1005 73.6643 12.8147L73.2312 14.0419V11.7484L73.2211 9.46502H72.7678H72.3145V20.379V31.293H72.7577H73.211L73.2513 23.9198C73.2916 16.9388 73.3017 16.5063 73.4931 15.601C74.3493 11.678 76.2432 9.76679 79.2653 9.76679H79.9705V9.37449C79.9705 9.05261 79.9302 8.97213 79.7489 8.92184C79.4567 8.85143 78.8624 8.86149 78.1572 8.97213Z" fill="#2C2C30"/>
<path d="M89.8429 8.92267C88.6441 9.09367 88.0699 9.22444 87.4151 9.47591C84.937 10.4215 83.2143 12.5137 82.8416 15.0184L82.7711 15.5012H83.2143H83.6677L83.8691 14.6563C84.3628 12.6747 85.3802 11.3972 87.1733 10.5321C88.3318 9.95874 89.0067 9.82797 90.5984 9.82797C92.1699 9.82797 92.8751 9.9688 93.9026 10.4919C95.1618 11.1256 96.1289 12.4031 96.4512 13.8616C96.5419 14.274 96.6225 15.3805 96.6628 16.6178L96.7232 18.6899L94.7185 18.7503C89.2687 18.9213 85.5817 20.0881 83.4863 22.3212C82.4588 23.4076 81.9854 24.6046 81.9854 26.1134C81.9954 28.4471 83.0028 30.2074 84.8463 31.0926C86.0652 31.676 86.992 31.847 88.7348 31.837C90.4372 31.8169 91.3036 31.6358 92.6031 30.992C94.2753 30.1873 95.3935 29.0004 96.149 27.24C96.5016 26.4253 96.6426 26.1839 96.693 26.3247C96.7333 26.4353 96.7937 27.1897 96.834 28.0246C96.8743 28.8495 96.9247 29.9258 96.965 30.4086L97.0254 31.2938H97.4888H97.9522L97.8213 29.8554C97.7407 28.9903 97.6601 25.6809 97.6097 21.3857C97.519 13.9019 97.509 13.8214 96.9952 12.4634C96.5822 11.3469 95.5748 10.2605 94.4264 9.68715C93.2982 9.12385 91.0618 8.75167 89.8429 8.92267ZM96.693 21.426C96.693 23.317 96.552 24.4537 96.1994 25.4898C95.2424 28.2459 93.0665 30.2678 90.407 30.8412C89.3291 31.0826 87.3748 31.0122 86.3674 30.6903C84.0303 29.956 82.892 28.2862 83.0129 25.7513C83.0532 24.8661 83.1035 24.675 83.4259 24.0312C84.3325 22.1904 86.448 20.8627 89.6414 20.1384C91.1625 19.7864 92.5728 19.6455 94.7085 19.6355L96.693 19.6254V21.426Z" fill="#2C2C30"/>
</g>
<defs>
<clipPath id="clip0_1456_60175">
<rect width="125.49" height="32" fill="white" transform="translate(0.882812)"/>
</clipPath>
</defs>
</svg>
